<?xml version="1.0" standalone="no"?>
<!DOCTYPE svg PUBLIC "-//W3C//DTD SVG 20010904//EN"
 "http://www.w3.org/TR/2001/REC-SVG-20010904/DTD/svg10.dtd">
<svg version="1.0" xmlns="http://www.w3.org/2000/svg"
 width="150.000000pt" height="150.000000pt" viewBox="0 0 150.000000 150.000000"
 preserveAspectRatio="xMidYMid meet">
<metadata>
Created by potrace 1.11, written by Peter Selinger 2001-2013
</metadata>
<g transform="translate(0.000000,150.000000) scale(0.100000,-0.100000)"
fill="#000000" stroke="none">
<path d="M22 1488 c-17 -17 -17 -1449 0 -1466 17 -17 1449 -17 1466 0 17 17
17 1449 0 1466 -17 17 -1449 17 -1466 0z m1216 -98 c33 -15 47 -29 62 -62 25
-56 25 -72 -4 -135 -24 -51 -96 -156 -115 -168 -13 -7 -96 104 -127 170 -29
60 -29 78 -4 133 15 33 29 47 62 62 54 24 72 24 126 0z m-395 -233 c116 -42
187 -114 207 -212 26 -123 -39 -241 -154 -285 l-30 -11 32 -19 c24 -15 46 -50
96 -152 35 -73 81 -151 100 -174 l35 -41 -26 -14 c-14 -8 -45 -14 -68 -13 -84
2 -134 51 -230 225 -67 121 -107 149 -257 174 l-38 6 0 -201 0 -200 -30 0
c-48 0 -97 25 -114 59 -14 26 -16 82 -16 379 0 346 0 349 23 393 57 108 291
151 470 86z"/>
<path d="M572 1041 c-62 -29 -75 -65 -66 -191 l7 -98 85 -12 c187 -27 279 19
290 144 5 68 -18 111 -80 146 -60 33 -176 39 -236 11z"/>
</g>
</svg>
