<svg version="1.1" id="Calque_1" xmlns="http://www.w3.org/2000/svg" xmlns:xlink="http://www.w3.org/1999/xlink" x="0px" y="0px"
	 viewBox="0 0 24 24" style="enable-background:new 0 0 24 24;" xml:space="preserve">
<style type="text/css">
	.st0{clip-path:url(#SVGID_2_);fill:#0F5E54;}
</style>
<g>
	<defs>
		<rect id="SVGID_1_" width="24" height="24"/>
	</defs>
	<clipPath id="SVGID_2_">
		<use xlink:href="#SVGID_1_"  style="overflow:visible;"/>
	</clipPath>
	<path class="st0" d="M22.3,8.3c0,1-0.8,1.9-1.9,1.9c-0.2,0-0.3,0-0.5-0.1l-3.3,3.3c0,0.1,0.1,0.3,0.1,0.5c0,1-0.8,1.9-1.9,1.9
		s-1.9-0.8-1.9-1.9c0-0.2,0-0.3,0.1-0.5L10.6,11c-0.1,0-0.3,0.1-0.5,0.1c-0.2,0-0.3,0-0.5-0.1l-4.2,4.3c0,0.1,0.1,0.3,0.1,0.5
		c0,1-0.8,1.9-1.9,1.9s-1.9-0.8-1.9-1.9s0.8-1.9,1.9-1.9c0.2,0,0.3,0,0.5,0.1l4.3-4.2c0-0.1-0.1-0.3-0.1-0.5c0-1,0.8-1.9,1.9-1.9
		S12,8.2,12,9.2c0,0.2,0,0.3-0.1,0.5l2.4,2.4c0.1,0,0.3-0.1,0.5-0.1s0.3,0,0.5,0.1l3.3-3.3c0-0.1-0.1-0.3-0.1-0.5
		c0-1,0.8-1.9,1.9-1.9S22.3,7.2,22.3,8.3z"/>
</g>
</svg>