<svg id="Calque_1" data-name="Calque 1" xmlns="http://www.w3.org/2000/svg" viewBox="0 0 512 229.52"><defs><style>.cls-1{fill:#78e08f;}.cls-2{fill:#0f5e54;}.cls-3{fill:#e4e4e2;}.cls-4{fill:#846f5d;}.cls-5{fill:#a88e74;}.cls-6{fill:#77aeaf;}</style></defs><title>illus-kayak</title><path class="cls-1" d="M16.62,93.05,0,79.45,16.62,65.84A291.33,291.33,0,0,1,201.09,0h11.27A512.06,512.06,0,0,1,398.93,35.2L512,79.45,398.93,123.69A512.07,512.07,0,0,1,212.36,158.9H201.09A291.33,291.33,0,0,1,16.62,93.05Z"/><path class="cls-2" d="M256,123.59H176.55V35.31H256a44.14,44.14,0,0,1,0,88.28Z"/><path class="cls-3" d="M141.24,114.76a8.86,8.86,0,0,1-5.65-2.05l-53-44.14A8.82,8.82,0,0,1,93.93,55l53,44.13a8.83,8.83,0,0,1-5.65,15.61Z"/><path class="cls-3" d="M88.28,105.93a8.83,8.83,0,0,1-5.65-15.61l53-44.13a8.82,8.82,0,1,1,11.62,13.28c-.1.1-.21.19-.32.28l-53,44.13A8.8,8.8,0,0,1,88.28,105.93Z"/><path class="cls-2" d="M335.45,114.76a8.83,8.83,0,1,1,0-17.66,66.18,66.18,0,0,0,29.49-7l21.39-10.69L364.94,68.76a66.06,66.06,0,0,0-29.49-7,8.83,8.83,0,1,1,0-17.65A84.2,84.2,0,0,1,372.84,53L410,71.55a8.83,8.83,0,0,1,4,11.84,8.92,8.92,0,0,1-4,4l-37.18,18.58A84.07,84.07,0,0,1,335.45,114.76Z"/><path class="cls-4" d="M449.79,220.69H71A8.83,8.83,0,1,1,71,203H449.79a8.83,8.83,0,1,1,0,17.65Z"/><path class="cls-5" d="M449.79,220.69H71c-5.11,0-9.25-2-9.25-4.41s4.14-4.42,9.25-4.42H449.79c5.1,0,9.25,2,9.25,4.42S454.89,220.69,449.79,220.69Z"/><path class="cls-6" d="M88.28,211.86,70.69,223.59a35.38,35.38,0,0,1-19.59,5.93H0V194.21H51.1a35.3,35.3,0,0,1,19.59,5.93Z"/><path class="cls-6" d="M432.55,211.86l17.59,11.73a35.35,35.35,0,0,0,19.58,5.93H512V194.21H469.72a35.27,35.27,0,0,0-19.58,5.93Z"/></svg>