<svg id="Calque_1" data-name="Calque 1" xmlns="http://www.w3.org/2000/svg" viewBox="0 0 454.36 282.19"><defs><style>.cls-1{fill:#d9d9d9;}.cls-2{fill:#a8a8a8;}.cls-3{fill:#b9b9b9;}.cls-4{fill:#78e08f;}.cls-5{fill:#a88e74;}.cls-6{fill:#0f5e54;}.cls-7{fill:#77aeaf;}</style></defs><title>illus-bike</title><path class="cls-1" d="M446.79,198.89a75.73,75.73,0,1,1-75.73-75.73A75.72,75.72,0,0,1,446.79,198.89Z"/><path class="cls-1" d="M159,197.58A75.73,75.73,0,1,1,83.3,121.86,75.73,75.73,0,0,1,159,197.58Z"/><path class="cls-2" d="M83.3,280.88a83.3,83.3,0,1,1,83.3-83.3A83.3,83.3,0,0,1,83.3,280.88Zm0-151.45a68.16,68.16,0,1,0,68.16,68.15A68.15,68.15,0,0,0,83.3,129.43Z"/><path class="cls-2" d="M371.06,282.19a83.3,83.3,0,1,1,83.3-83.3A83.31,83.31,0,0,1,371.06,282.19Zm0-151.46a68.16,68.16,0,1,0,68.16,68.16A68.16,68.16,0,0,0,371.06,130.73Z"/><path class="cls-3" d="M257.47,250.59H234.76a7.56,7.56,0,0,1-6.82-4.18L205.22,201a7.58,7.58,0,0,1,13.56-6.77l20.62,41.25h18.07a7.57,7.57,0,1,1,0,15.14Z"/><path class="cls-4" d="M212,205.16H83.3a7.57,7.57,0,0,1-5.82-12.42l75.72-90.87a7.7,7.7,0,0,1,3.21-2.28l143.88-53a7.57,7.57,0,0,1,9,11.14L218.44,201.61A7.57,7.57,0,0,1,212,205.16ZM99.47,190H207.86L284.59,68.52l-121,44.6Z"/><path class="cls-4" d="M329.61,90.19l-30.49-61,35.32-5.9.45-.07A7.57,7.57,0,1,0,332,8.37L286.52,16a7.44,7.44,0,0,0-2.14.69A7.58,7.58,0,0,0,281,26.8l37.86,75.72-.28.24,45.1,96.43a7.57,7.57,0,0,0,7.39,6,7.93,7.93,0,0,0,1.61-.17h0a7.57,7.57,0,0,0,5.79-9L329.56,90.55"/><path class="cls-5" d="M106,197.58A22.72,22.72,0,1,1,83.3,174.87,22.72,22.72,0,0,1,106,197.58Z"/><path class="cls-5" d="M393.78,197.58a22.72,22.72,0,1,1-22.72-22.71A22.72,22.72,0,0,1,393.78,197.58Z"/><path class="cls-2" d="M356.36,15.15A15.15,15.15,0,1,1,341.22,0,15.14,15.14,0,0,1,356.36,15.15Z"/><path class="cls-4" d="M212,205.16a7.57,7.57,0,0,1-6.53-3.73L126.71,67.61a7.58,7.58,0,1,1,13-7.7l78.8,133.83A7.58,7.58,0,0,1,212,205.16Z"/><path class="cls-6" d="M98.45,38.56h83.3l-17.53,14a74.26,74.26,0,0,1-46.37,16.27,15.14,15.14,0,0,1-14.7-11.47Z"/><path class="cls-7" d="M234.76,197.58A22.72,22.72,0,1,1,212,174.87,22.72,22.72,0,0,1,234.76,197.58Z"/></svg>