<svg id="Calque_1" data-name="Calque 1" xmlns="http://www.w3.org/2000/svg" viewBox="0 0 396 259.41"><defs><style>.cls-1{fill:#f2bb80;}.cls-2{fill:#4398d1;}.cls-3{fill:#3e8cc7;}.cls-4{fill:#a88e74;}.cls-5{fill:#78e08f;}.cls-6{fill:#0f5e54;}.cls-7{fill:#846f5d;}.cls-8{fill:#e5e5e5;}.cls-9{fill:#5a5b5b;}.cls-10{fill:#8aced8;}.cls-11{fill:#77aeaf;}</style></defs><title>illus-swim</title><path id="SVGCleanerId_0" data-name="SVGCleanerId 0" class="cls-1" d="M316.73,0h0a39.67,39.67,0,0,1,39.68,39.68V72.74a39.67,39.67,0,0,1-39.68,39.68h0a39.68,39.68,0,0,1-39.68-39.68V39.68A39.68,39.68,0,0,1,316.73,0Z"/><path class="cls-2" d="M314.28.07c-20.5,1.24-37.23,19.79-37.23,40.33v5.89h79.36V39.68A39.68,39.68,0,0,0,314.28.07Z"/><path class="cls-3" d="M277.05,46.29h79.36V39.68a39.64,39.64,0,0,0-7.54-23.21A221.85,221.85,0,0,1,277.05,41Z"/><path class="cls-4" d="M109.45,22.94l-53.82,86L22.56,135.36,42.4,161.81l39.68-26.45,59.51-72.74,46.29,46.29-75,75.05a24.68,24.68,0,0,1,2.31,1,74,74,0,0,0,66.13,0,73.73,73.73,0,0,1,66.13,0,74,74,0,0,0,66.13,0,74,74,0,0,1,35.84-7.67l-175.9-163A41.81,41.81,0,0,0,145,3.1h0A42,42,0,0,0,109.45,22.94Z"/><path id="SVGCleanerId_0-2" data-name="SVGCleanerId 0" class="cls-4" d="M316.73,0h0a39.67,39.67,0,0,1,39.68,39.68V72.74a39.67,39.67,0,0,1-39.68,39.68h0a39.68,39.68,0,0,1-39.68-39.68V39.68A39.68,39.68,0,0,1,316.73,0Z"/><path class="cls-5" d="M314.28.07c-20.5,1.24-37.23,19.79-37.23,40.33v5.89h79.36V39.68A39.68,39.68,0,0,0,314.28.07Z"/><path class="cls-6" d="M277.05,46.29h79.36V39.68a39.64,39.64,0,0,0-7.54-23.21A221.85,221.85,0,0,1,277.05,41Z"/><path class="cls-7" d="M128.37,168.42,112.89,183.9a24.86,24.86,0,0,1,2.32,1C136,195.28,161,209.14,181.79,198.75s44.29-4.25,65.09,6.2,45.9-9.67,66.71-20.06a73.83,73.83,0,0,1,35.85-7.67L311.15,142A815.09,815.09,0,0,1,128.37,168.42Z"/><path class="cls-8" d="M330,46.29h13.22a13.23,13.23,0,0,1,13.23,13.23h0a13.22,13.22,0,0,1-13.23,13.22H330a13.22,13.22,0,0,1-13.23-13.22h0A13.23,13.23,0,0,1,330,46.29Z"/><rect class="cls-9" x="277.05" y="39.68" width="79.35" height="13.23"/><path class="cls-9" d="M343.18,79.35H330.41c-10.35,0-19.3-7.73-20.21-18A19.84,19.84,0,0,1,330,39.68h12.78c10.34,0,19.29,7.73,20.2,18a19.84,19.84,0,0,1-19.76,21.64ZM330,52.9A6.64,6.64,0,0,0,323.5,61a6.75,6.75,0,0,0,6.66,5.14H343A6.74,6.74,0,0,0,349.64,61a6.64,6.64,0,0,0-6.46-8.09Z"/><path class="cls-10" d="M398,259.41v-99a82.77,82.77,0,0,0-35.47,7.07A70.5,70.5,0,0,1,332,173.61a70.53,70.53,0,0,1-30.57-6.13,82.68,82.68,0,0,0-35.49-7.07,82.64,82.64,0,0,0-35.44,7.07A70.44,70.44,0,0,1,200,173.61a70.47,70.47,0,0,1-30.55-6.13A82.68,82.68,0,0,0,134,160.41a82.68,82.68,0,0,0-35.45,7.07A70.37,70.37,0,0,1,68,173.61a70.35,70.35,0,0,1-30.53-6.13A82.62,82.62,0,0,0,2,160.41v99Z"/><path class="cls-11" d="M2,259.41V200a82.64,82.64,0,0,1,35.44,7.07A70.34,70.34,0,0,0,68,213.21a70.4,70.4,0,0,0,30.54-6.13A82.65,82.65,0,0,1,134,200a82.68,82.68,0,0,1,35.45,7.07A70.47,70.47,0,0,0,200,213.21a70.44,70.44,0,0,0,30.55-6.13A82.64,82.64,0,0,1,265.94,200a82.7,82.7,0,0,1,35.46,7.07,70.54,70.54,0,0,0,30.6,6.13,70.51,70.51,0,0,0,30.56-6.13A82.64,82.64,0,0,1,398,200v59.4Z"/></svg>