<svg id="Calque_1" data-name="Calque 1" xmlns="http://www.w3.org/2000/svg" viewBox="0 0 341 251.26"><defs><style>.cls-1{fill:#a88e74;}.cls-2{fill:#78e08f;}.cls-3{fill:#0f5e54;}.cls-4{fill:#77aeaf;}.cls-5{fill:#eaeae8;}.cls-6{fill:#e4e4e2;}</style></defs><title>Illus-run</title><path class="cls-1" d="M71.79,29.91,89.74,0l38.65,20.75a17.35,17.35,0,0,1,8.52,19.89l-7.18,24-5.11,5.12L68.8,36.39Z"/><path class="cls-2" d="M71.29,29.91,29.42,95.72l-5,8.48L215.37,208.89l11,5.48,55.84,1H341l-.5-30.94a31,31,0,0,0-28.82-30.94l-54.93-3.93L202.91,59.82V50.25a9.57,9.57,0,0,0-13-9l-60.65,23.4Z"/><path class="cls-1" d="M203.4,59.82,179.47,77.77l59.83,77.77,17.95-6Z"/><path class="cls-3" d="M120.67,157.56A6,6,0,0,1,116.84,147l35.89-29.91a6,6,0,0,1,7.66,9.2l-35.9,29.91A6,6,0,0,1,120.67,157.56Z"/><path class="cls-3" d="M150.58,175.51a6,6,0,0,1-3.74-10.66l29.91-23.93a6,6,0,0,1,7.48,9.35L154.32,174.2A6,6,0,0,1,150.58,175.51Z"/><path class="cls-3" d="M58,51.6,82.83,70.09a39.92,39.92,0,0,1,15.74,37.35l-1.19,27.17L30,95.79Z"/><path class="cls-4" d="M35.89,179.47H6a6,6,0,0,1,0-12H35.89a6,6,0,1,1,0,12Z"/><path class="cls-4" d="M83.75,215.37H6a6,6,0,0,1,0-12H83.75a6,6,0,1,1,0,12Z"/><path class="cls-4" d="M149.56,251.26H6a6,6,0,1,1,0-12H149.56a6,6,0,1,1,0,12Z"/><path class="cls-5" d="M6,125.63,221.85,245.28h89.24A29.91,29.91,0,0,0,341,215.37v-6H227.33L23.72,92.2Z"/><path class="cls-6" d="M311.09,245.28a29.76,29.76,0,0,0,23.79-12H227.33L12.25,113.82,6,125.63,221.85,245.28Z"/></svg>