<?xml version="1.0" encoding="utf-8"?>
<!-- Generator: Adobe Illustrator 16.0.0, SVG Export Plug-In . SVG Version: 6.00 Build 0)  -->
<!DOCTYPE svg PUBLIC "-//W3C//DTD SVG 1.1//EN" "http://www.w3.org/Graphics/SVG/1.1/DTD/svg11.dtd">
<svg version="1.1" id="Calque_1" xmlns="http://www.w3.org/2000/svg" xmlns:xlink="http://www.w3.org/1999/xlink" x="0px" y="0px"
	 width="1190.551px" height="841.891px" viewBox="0 0 1190.551 841.891" enable-background="new 0 0 1190.551 841.891"
	 xml:space="preserve">
<title>logo-color</title>
<path fill="#FFFFFF" d="M62.365,524.215c0,10.564,0.086,18.999,0.256,25.304c0.171,6.305,0.426,11.332,0.767,15.081
	c0.341,4.089,0.682,7.156,1.022,9.201c-21.129,0-37.146-4.346-48.052-13.035C5.453,552.075,0,537.506,0,517.058V300.824
	c0-16.358,2.897-29.99,8.69-40.896c5.567-10.638,13.747-19.685,23.771-26.293c10.991-7.022,23.224-11.881,36.039-14.313
	c15.008-3.031,30.211-4.996,45.496-5.878c11.262-0.657,22.56-0.229,33.738,1.277c12.08,1.568,23.979,4.308,35.528,8.18
	c11.647,3.869,22.866,8.922,33.483,15.08c10.446,6.039,19.854,13.72,27.859,22.748c8.058,9.098,14.459,19.535,18.914,30.842
	c4.725,12.379,6.729,25.629,5.879,38.851c-0.46,19.486-7.182,38.307-19.17,53.675c-12.098,15.677-29.563,26.923-52.396,33.739
	c7.638,2.595,14.496,7.079,19.937,13.035c5.798,6.471,10.698,13.691,14.568,21.471c4.26,8.349,8.521,17.465,12.78,27.349
	c4.26,9.883,8.945,19.937,14.058,30.16c3.494,7.399,7.598,14.495,12.269,21.214c4.431,6.305,8.52,11.843,12.269,16.614
	c3.817,5.148,8.095,9.939,12.78,14.313c-3.022,3.033-6.466,5.615-10.225,7.668c-4.261,1.863-8.72,3.235-13.291,4.089
	c-6.091,1.03-12.312,1.03-18.402,0c-7.886-0.929-15.521-3.357-22.493-7.156c-7.777-4.556-14.698-10.438-20.447-17.381
	c-8.147-9.732-15.418-20.168-21.726-31.183c-7.668-12.95-16.443-29.138-26.326-48.563c-5.794-10.905-12.78-19.169-20.959-24.792
	c-9.26-6.096-19.445-10.653-30.16-13.496c-1.921-0.649-3.886-1.162-5.879-1.533c-1.836-0.33-3.635-0.844-5.367-1.534
	c-2.386-0.341-5.709-0.908-9.969-1.703c-4.26-0.796-8.605-1.563-13.035-2.301c-5.112-1.022-10.395-2.045-15.848-3.067V524.215z
	 M113.996,263.507c-8.633,0.675-17.141,2.479-25.304,5.367c-5.806,2.062-11.18,5.181-15.848,9.201
	c-3.735,3.253-6.654,7.339-8.52,11.929c-1.667,4.233-2.533,8.74-2.556,13.291v17.721c0,7.327,0.085,14.711,0.256,22.152
	c0.17,7.44,0.255,14.342,0.255,20.703v12.524c7.839,1.704,15.848,3.237,24.026,4.601c6.815,1.022,14.313,1.959,22.492,2.812
	c7.981,0.842,16.001,1.268,24.026,1.277c21.47,0,38.339-4.26,50.608-12.779c12.269-8.52,19.596-22.492,21.98-41.918
	c1.363-12.609-0.511-23.401-5.623-32.376c-4.943-8.871-12.145-16.278-20.873-21.47c-9.487-5.516-19.868-9.322-30.672-11.246
	C136.969,263.096,125.44,262.494,113.996,263.507L113.996,263.507z"/>
<path fill="#FFFFFF" d="M353.745,443.446c9.635-5.976,20.162-10.376,31.183-13.035c11.875-2.932,24.064-4.391,36.295-4.345
	c17.165-0.083,34.238,2.504,50.608,7.668c-0.812-9.649-3.051-19.125-6.646-28.116c-4.431-10.564-11.076-18.232-19.937-23.004
	c-3.49-1.729-7.182-3.018-10.99-3.834c-4.458-0.904-8.999-1.333-13.547-1.277h-5.623c-4.829,0.349-9.619,1.118-14.313,2.3
	c-4.788,1.193-9.543,2.642-14.313,4.346c-4.771,1.704-9.542,3.152-14.313,4.345c-4.511,1.157-9.146,1.759-13.803,1.789
	c-4.77,0.005-9.482-1.043-13.802-3.066c-4.563-2.893-8.269-6.952-10.735-11.758l-1.022-2.045l1.022-1.533
	c21.205-22.614,50.324-36.166,81.28-37.828c1.428-0.31,2.883-0.481,4.345-0.512h4.346c14.748-0.155,29.368,2.746,42.939,8.521
	c12.679,5.437,24.147,13.344,33.739,23.259c19.425,21.129,29.479,48.904,30.16,83.324v4.09c0,35.442-9.031,64.239-27.093,86.392
	c-8.814,10.859-19.668,19.89-31.95,26.582c-12.913,6.954-27.07,11.297-41.662,12.779c-2.028,0.331-4.079,0.502-6.134,0.512h-6.646
	c-7.529-0.002-15.048-0.571-22.492-1.704c-7.949-1.229-15.69-3.552-23.004-6.901c-7.687-2.973-14.915-7.017-21.47-12.013
	c-6.708-5.203-12.275-11.728-16.358-19.17c-6.475-9.883-9.883-21.981-10.224-36.295v-3.067c0-13.291,2.727-24.366,8.179-33.228
	C337.011,457.16,344.574,449.185,353.745,443.446z M459.562,467.983c-4.431-0.682-9.457-1.363-15.08-2.044
	c-5.683-0.686-11.401-1.027-17.125-1.022c-4.611-0.011-9.221,0.246-13.803,0.767c-4.186,0.454-8.303,1.398-12.269,2.812
	c-8.52,2.727-14.995,6.986-19.425,12.779c-1.718,2.04-3.099,4.341-4.09,6.816c-1.066,2.733-1.755,5.6-2.045,8.52
	c-0.399,1.499-0.572,3.051-0.511,4.601c0.041,3.714,0.557,7.407,1.533,10.991c1.125,4.105,3.23,7.877,6.135,10.99
	c3.259,3.808,7.376,6.786,12.013,8.69c5.282,2.386,12.337,3.578,21.214,3.578c2.058,0.062,4.116-0.109,6.135-0.511
	c8.979-0.159,17.706-3.008,25.049-8.18c3.298-1.957,6.236-4.464,8.69-7.412c2.389-2.915,4.446-6.087,6.134-9.457
	c3.636-6.179,6.227-12.914,7.668-19.937c1.292-6.224,1.977-12.558,2.045-18.914c-0.279,0.021-0.556-0.07-0.767-0.256
	c-0.205-0.2-0.48-0.311-0.768-0.307c-1.362-0.341-2.896-0.682-4.601-1.022S461.948,468.631,459.562,467.983z"/>
<path fill="#FFFFFF" d="M642.842,255.788c-8.247,13.631-19.573,20.447-33.978,20.447c-6.104,0.038-12.13-1.369-17.585-4.106
	c-5.647-3.29-10.299-8.048-13.461-13.769c-3.121-5.641-4.735-11.99-4.687-18.437c-0.108-7,1.72-13.894,5.282-19.92
	c3.307-6.438,8.354-11.816,14.569-15.522c5.816-3.591,12.505-5.518,19.34-5.572c5.995,0.025,11.876,1.642,17.04,4.686
	c6,2.89,10.929,7.609,14.075,13.479c3.096,5.762,4.706,12.203,4.686,18.744C648.136,242.821,646.316,249.706,642.842,255.788z
	 M672.219,527.793c-2.259,2.77-5.28,4.813-8.69,5.879c-3.902,1.515-8.139,1.955-12.269,1.278c-4.232-0.766-8.045-3.035-10.735-6.39
	c-3.067-3.579-4.601-9.457-4.601-17.637V388.698c0-10.225,0-18.488,0.256-24.793c0.255-6.305,0.408-11.332,0.767-15.08
	c0.329-4.09,0.67-7.327,1.022-9.713c-21.141,0-37.158,4.431-48.053,13.291c-10.894,8.86-16.347,23.515-16.357,43.962l-0.512,120.642
	c-0.029,8.331,1.265,16.613,3.834,24.537c2.4,7.584,6.411,14.559,11.758,20.448c5.455,5.962,12.181,10.621,19.681,13.632
	c7.815,3.237,17.017,4.345,27.604,3.322c10.883-0.704,18.892-3.856,24.025-9.457c4.744-4.995,8.246-11.037,10.225-17.636
	C672.273,544.017,672.966,535.871,672.219,527.793z"/>
<path fill="#FFFFFF" d="M924.219,456.737c0.101,16.122-2.669,32.134-8.179,47.285c-5.173,14.351-12.974,27.612-23.004,39.106
	c-10.103,11.064-22.368,19.938-36.039,26.071c-14.873,6.622-31.006,9.936-47.285,9.712c-15.277,0.08-30.381-3.238-44.218-9.712
	c-28.012-12.733-49.87-36.001-60.832-64.751c-6.025-15.18-9.063-31.381-8.946-47.712c-0.127-16.27,2.553-32.438,7.924-47.796
	c5.017-14.369,12.738-27.644,22.748-39.106c10.103-11.064,22.368-19.938,36.039-26.071c14.871-6.627,31.006-9.941,47.285-9.712
	c18.245-0.216,36.226,4.368,52.142,13.291l-0.511-72.079c0-20.447,5.623-35.017,16.869-43.707
	c11.246-8.689,27.434-13.035,48.563-13.035c-0.341,2.045-0.682,5.112-1.022,9.202c-0.341,3.748-0.597,8.86-0.767,15.335
	c-0.171,6.476-0.256,14.825-0.256,25.049L924.219,456.737z M809.712,534.95c5.329-0.17,10.595-1.206,15.592-3.067
	c6.538-2.425,12.407-6.366,17.125-11.502c5.452-5.68,10.053-13.688,13.802-24.026c3.749-10.337,5.623-23.713,5.623-40.128
	c0-16.358-1.874-29.734-5.623-40.129s-8.35-18.403-13.802-24.026c-4.718-5.135-10.587-9.077-17.125-11.501
	c-9.992-4.089-21.19-4.089-31.183,0c-6.536,2.437-12.399,6.39-17.108,11.535c-5.452,5.681-10.054,13.688-13.802,24.026
	c-3.749,10.338-5.623,23.714-5.623,40.129c0,16.357,1.874,29.734,5.623,40.128c3.748,10.395,8.349,18.403,13.802,24.026
	c4.702,5.094,10.541,9.005,17.04,11.417C799.067,533.718,804.357,534.771,809.712,534.95L809.712,534.95z"/>
<path fill="#FFFFFF" d="M1118.472,366.257c4.43-10.905,10.734-18.29,18.914-22.152c7.531-3.703,15.671-6.013,24.025-6.815
	c9.786-0.632,19.611,0.229,29.138,2.556c-21.811,52.482-41.406,99.513-58.787,141.089c-7.497,17.722-14.909,35.272-22.236,52.653
	c-7.327,17.38-13.888,33.057-19.681,47.029c-5.794,13.973-10.65,25.56-14.569,34.762c-3.919,9.201-6.191,14.483-6.815,15.847
	c-4.771,10.905-11.076,18.402-18.914,22.492c-7.289,3.915-15.281,6.348-23.516,7.157c-9.82,0.96-19.732-0.084-29.138-3.067
	c4.09-9.542,8.521-19.937,13.291-31.183l13.904-34.165c5.282-12.779,10.991-26.326,17.125-40.64l-6.39-14.824
	c-3.238-7.498-6.986-16.529-11.246-27.094s-9.031-22.066-14.313-34.505c-5.282-12.439-10.479-24.936-15.592-37.488
	c-12.269-29.648-26.07-62.365-41.406-98.148c9.526-2.326,19.352-3.188,29.138-2.556c8.306,0.771,16.396,3.083,23.855,6.815
	c7.952,3.919,14.342,11.303,19.17,22.151c0.682,1.704,2.471,6.05,5.367,13.036c2.897,6.986,6.476,15.762,10.735,26.326
	s9.116,22.236,14.569,35.017c5.452,12.78,10.905,25.645,16.357,38.595c6.135-14.313,11.929-27.945,17.381-40.896
	c5.453-12.95,10.309-24.537,14.569-34.761c4.26-10.224,7.668-18.658,10.224-25.304S1117.802,367.562,1118.472,366.257z"/>
<path fill="#FFFFFF" d="M607.331,180.812c-27.191,0.075-49.214,22.104-49.279,49.296c-0.04,6.937,1.413,13.8,4.261,20.124
	c12.336,26.957,35.971,55.448,42.923,63.524c0.979,1.144,2.7,1.276,3.844,0.297c0.106-0.091,0.206-0.19,0.297-0.297
	c6.952-8.076,30.586-36.55,42.906-63.524c2.878-6.316,4.354-13.182,4.328-20.124C656.544,202.917,634.522,180.887,607.331,180.812z
	 M607.331,255.788c-14.116,0-25.56-11.444-25.56-25.561c0-14.115,11.443-25.56,25.56-25.56s25.56,11.444,25.56,25.56
	C632.89,244.344,621.447,255.788,607.331,255.788z"/>
</svg>
