<?xml version="1.0" standalone="no"?>
<!DOCTYPE svg PUBLIC "-//W3C//DTD SVG 20010904//EN"
 "http://www.w3.org/TR/2001/REC-SVG-20010904/DTD/svg10.dtd">
<svg version="1.0" xmlns="http://www.w3.org/2000/svg"
 width="301.000000pt" height="301.000000pt" viewBox="0 0 301.000000 301.000000"
 preserveAspectRatio="xMidYMid meet">
<metadata>
Created by potrace 1.11, written by Peter Selinger 2001-2013
</metadata>
<g transform="translate(0.000000,301.000000) scale(0.100000,-0.100000)"
fill="#000000" stroke="none">
<path d="M44 2976 l-34 -34 0 -1422 0 -1422 34 -34 34 -34 1422 0 1422 0 34
34 34 34 0 1422 0 1422 -34 34 -34 34 -1422 0 -1422 0 -34 -34z m2413 -176
c104 -46 167 -143 167 -260 1 -53 -5 -78 -32 -135 -55 -115 -225 -355 -252
-355 -26 0 -202 250 -253 357 -117 251 120 503 370 393z m-882 -430 c370 -99
559 -328 524 -636 -20 -179 -138 -328 -313 -395 l-56 -22 43 -27 c57 -36 101
-90 142 -175 18 -38 67 -140 108 -225 52 -109 95 -182 146 -248 39 -51 68 -98
65 -104 -16 -25 -98 -50 -163 -50 -185 2 -287 102 -481 471 -36 68 -82 143
-102 166 -41 47 -126 95 -208 119 -51 15 -253 56 -274 56 -5 0 -7 -169 -4
-406 l5 -407 -66 6 c-46 5 -85 16 -130 39 -54 28 -69 41 -95 88 l-31 55 0 696
0 695 38 76 c72 147 191 212 447 248 106 15 313 4 405 -20z"/>
<path d="M1210 2126 c-65 -14 -126 -45 -157 -78 -47 -50 -53 -83 -53 -307 l0
-209 98 -19 c69 -13 144 -18 262 -18 150 0 170 2 224 24 114 46 174 136 183
276 7 98 -16 160 -80 223 -104 101 -304 147 -477 108z"/>
</g>
</svg>
