<?xml version="1.0" standalone="no"?>
<!DOCTYPE svg PUBLIC "-//W3C//DTD SVG 20010904//EN"
 "http://www.w3.org/TR/2001/REC-SVG-20010904/DTD/svg10.dtd">
<svg version="1.0" xmlns="http://www.w3.org/2000/svg"
 width="299.000000pt" height="299.000000pt" viewBox="0 0 299.000000 299.000000"
 preserveAspectRatio="xMidYMid meet">
<metadata>
Created by potrace 1.11, written by Peter Selinger 2001-2013
</metadata>
<g transform="translate(0.000000,299.000000) scale(0.100000,-0.100000)"
fill="#000000" stroke="none">
<path d="M58 2974 c-62 -33 -58 60 -58 -1474 0 -1233 2 -1405 15 -1430 33 -64
-64 -60 1475 -60 1233 0 1405 2 1430 15 64 33 60 -64 60 1475 0 1539 4 1442
-60 1475 -25 13 -197 15 -1432 15 -1221 -1 -1407 -3 -1430 -16z m2398 -192
c62 -32 97 -65 129 -124 27 -47 30 -62 30 -138 0 -77 -4 -91 -34 -150 -59
-114 -229 -350 -252 -350 -12 0 -133 158 -194 255 -30 48 -63 111 -75 141 -58
156 19 321 177 380 54 20 167 13 219 -14z m-942 -428 c182 -35 334 -112 438
-223 129 -136 175 -302 133 -479 -37 -158 -155 -290 -307 -347 l-47 -17 41
-28 c22 -15 56 -47 75 -71 34 -43 44 -62 167 -322 64 -135 125 -233 194 -309
19 -21 31 -42 27 -48 -14 -22 -91 -52 -146 -57 -41 -4 -76 0 -128 16 -127 39
-218 145 -375 441 -45 84 -95 163 -119 188 -47 49 -124 92 -207 115 -60 17
-216 47 -244 47 -16 0 -17 -26 -14 -405 l3 -405 -50 6 c-153 18 -221 58 -267
159 l-23 50 0 665 c0 614 1 670 18 724 23 74 52 120 110 173 77 71 182 112
342 132 173 22 242 21 379 -5z"/>
<path d="M1252 2099 c-101 -10 -198 -58 -229 -114 -22 -38 -23 -51 -23 -257 0
-119 4 -219 9 -222 16 -10 197 -36 296 -42 296 -19 449 92 449 326 0 64 -4 83
-29 129 -74 135 -247 201 -473 180z"/>
</g>
</svg>
