<?xml version="1.0" standalone="no"?>
<!DOCTYPE svg PUBLIC "-//W3C//DTD SVG 20010904//EN"
 "http://www.w3.org/TR/2001/REC-SVG-20010904/DTD/svg10.dtd">
<svg version="1.0" xmlns="http://www.w3.org/2000/svg"
 width="150.000000pt" height="150.000000pt" viewBox="0 0 150.000000 150.000000"
 preserveAspectRatio="xMidYMid meet">
<metadata>
Created by potrace 1.11, written by Peter Selinger 2001-2013
</metadata>
<g transform="translate(0.000000,150.000000) scale(0.100000,-0.100000)"
fill="#000000" stroke="none">
<path d="M27 1482 c-16 -17 -17 -82 -17 -729 0 -675 1 -711 18 -726 17 -16 82
-17 729 -17 675 0 711 1 726 18 16 17 17 82 17 729 0 675 -1 711 -18 726 -17
16 -82 17 -729 17 -675 0 -711 -1 -726 -18z m1221 -92 c70 -43 90 -124 51
-203 -32 -63 -108 -167 -122 -167 -16 0 -78 81 -117 152 -35 63 -39 119 -10
166 42 68 132 92 198 52z m-459 -211 c119 -27 225 -109 255 -196 44 -130 -14
-273 -132 -322 l-31 -13 31 -26 c20 -17 50 -66 81 -132 27 -58 69 -133 93
-167 l44 -62 -22 -15 c-12 -9 -40 -16 -61 -16 -87 0 -148 53 -228 199 -29 53
-62 107 -73 119 -31 35 -81 58 -163 75 l-73 14 0 -205 0 -205 -42 7 c-53 8
-88 32 -110 77 -16 30 -18 69 -18 359 0 193 4 340 10 362 21 72 91 129 183
148 60 11 204 11 256 -1z"/>
<path d="M620 1051 c-94 -20 -110 -46 -110 -182 0 -92 2 -108 18 -114 9 -4 63
-9 119 -12 127 -7 180 9 215 65 31 51 31 126 -1 171 -40 56 -154 90 -241 72z"/>
</g>
</svg>
